<?xml version="1.0" encoding="UTF-8"?>
<svg xmlns="http://www.w3.org/2000/svg" width="960" height="640" viewBox="0 0 960 640">
  <rect width="100%" height="100%" fill="rgb(255,255,255)"/>
  <style>text{font-family:Helvetica,Arial,sans-serif;fill:rgb(55,65,81);}</style>
  <line x1="90" y1="72" x2="90" y2="556" stroke="rgb(229,231,235)" stroke-width="1"/>
  <line x1="90" y1="72" x2="936" y2="72" stroke="rgb(229,231,235)" stroke-width="1"/>
  <line x1="259.2" y1="72" x2="259.2" y2="556" stroke="rgb(229,231,235)" stroke-width="1"/>
  <line x1="90" y1="168.8" x2="936" y2="168.8" stroke="rgb(229,231,235)" stroke-width="1"/>
  <line x1="428.4" y1="72" x2="428.4" y2="556" stroke="rgb(229,231,235)" stroke-width="1"/>
  <line x1="90" y1="265.6" x2="936" y2="265.6" stroke="rgb(229,231,235)" stroke-width="1"/>
  <line x1="597.6" y1="72" x2="597.6" y2="556" stroke="rgb(229,231,235)" stroke-width="1"/>
  <line x1="90" y1="362.4" x2="936" y2="362.4" stroke="rgb(229,231,235)" stroke-width="1"/>
  <line x1="766.8" y1="72" x2="766.8" y2="556" stroke="rgb(229,231,235)" stroke-width="1"/>
  <line x1="90" y1="459.2" x2="936" y2="459.2" stroke="rgb(229,231,235)" stroke-width="1"/>
  <line x1="936" y1="72" x2="936" y2="556" stroke="rgb(229,231,235)" stroke-width="1"/>
  <line x1="90" y1="556" x2="936" y2="556" stroke="rgb(229,231,235)" stroke-width="1"/>
  <line x1="90" y1="556" x2="936" y2="556" stroke="rgb(55,65,81)" stroke-width="2"/>
  <line x1="90" y1="72" x2="90" y2="556" stroke="rgb(55,65,81)" stroke-width="2"/>
  <text x="90" y="580" font-size="12" text-anchor="middle">-0.023</text>
  <text x="80" y="560" font-size="12" text-anchor="end">-2.209</text>
  <text x="259.2" y="580" font-size="12" text-anchor="middle">0.079</text>
  <text x="80" y="463.2" font-size="12" text-anchor="end">-1.275</text>
  <text x="428.4" y="580" font-size="12" text-anchor="middle">0.181</text>
  <text x="80" y="366.4" font-size="12" text-anchor="end">-0.34</text>
  <text x="597.6" y="580" font-size="12" text-anchor="middle">0.283</text>
  <text x="80" y="269.6" font-size="12" text-anchor="end">0.595</text>
  <text x="766.8" y="580" font-size="12" text-anchor="middle">0.385</text>
  <text x="80" y="172.8" font-size="12" text-anchor="end">1.529</text>
  <text x="936" y="580" font-size="12" text-anchor="middle">0.487</text>
  <text x="80" y="76" font-size="12" text-anchor="end">2.464</text>
  <text x="480" y="36" font-size="24" text-anchor="middle">Residuals vs Leverage</text>
  <text x="480" y="620" font-size="16" text-anchor="middle">Leverage</text>
  <text x="24" y="320" font-size="16" text-anchor="middle" transform="rotate(-90 24 320)">Standardized residuals</text>
  <circle cx="188.593" cy="351.683" r="4" fill="rgb(37,99,235)"/>
  <circle cx="188.629" cy="350.432" r="4" fill="rgb(37,99,235)"/>
  <circle cx="277.199" cy="399.106" r="4" fill="rgb(37,99,235)"/>
  <circle cx="130.416" cy="329.11" r="4" fill="rgb(37,99,235)"/>
  <circle cx="204.599" cy="358.191" r="4" fill="rgb(37,99,235)"/>
  <circle cx="143.699" cy="335.299" r="4" fill="rgb(37,99,235)"/>
  <circle cx="269.241" cy="395.561" r="4" fill="rgb(37,99,235)"/>
  <circle cx="128.459" cy="327.247" r="4" fill="rgb(37,99,235)"/>
  <circle cx="151.395" cy="338.021" r="4" fill="rgb(37,99,235)"/>
  <circle cx="131.616" cy="329.618" r="4" fill="rgb(37,99,235)"/>
  <circle cx="128.467" cy="327.288" r="4" fill="rgb(37,99,235)"/>
  <circle cx="152.923" cy="336.936" r="4" fill="rgb(37,99,235)"/>
  <circle cx="128.598" cy="327.593" r="4" fill="rgb(37,99,235)"/>
  <circle cx="188.593" cy="351.683" r="4" fill="rgb(37,99,235)"/>
  <circle cx="128.793" cy="327.799" r="4" fill="rgb(37,99,235)"/>
  <circle cx="149.944" cy="337.457" r="4" fill="rgb(37,99,235)"/>
  <circle cx="188.629" cy="350.432" r="4" fill="rgb(37,99,235)"/>
  <circle cx="128.686" cy="327.726" r="4" fill="rgb(37,99,235)"/>
  <circle cx="188.629" cy="350.432" r="4" fill="rgb(37,99,235)"/>
  <circle cx="128.67" cy="327.699" r="4" fill="rgb(37,99,235)"/>
  <circle cx="356.741" cy="515.667" r="4" fill="rgb(37,99,235)"/>
  <circle cx="130.416" cy="329.11" r="4" fill="rgb(37,99,235)"/>
  <circle cx="277.199" cy="399.106" r="4" fill="rgb(37,99,235)"/>
  <circle cx="147.153" cy="335.75" r="4" fill="rgb(37,99,235)"/>
  <circle cx="135.254" cy="331.743" r="4" fill="rgb(37,99,235)"/>
  <circle cx="149.944" cy="337.457" r="4" fill="rgb(37,99,235)"/>
  <circle cx="215.148" cy="359.953" r="4" fill="rgb(37,99,235)"/>
  <circle cx="263.077" cy="514.938" r="4" fill="rgb(37,99,235)"/>
  <circle cx="188.629" cy="350.432" r="4" fill="rgb(37,99,235)"/>
  <circle cx="128.467" cy="327.288" r="4" fill="rgb(37,99,235)"/>
  <circle cx="128.589" cy="327.572" r="4" fill="rgb(37,99,235)"/>
  <circle cx="128.488" cy="327.362" r="4" fill="rgb(37,99,235)"/>
  <circle cx="128.978" cy="328.046" r="4" fill="rgb(37,99,235)"/>
  <circle cx="320.359" cy="495.287" r="4" fill="rgb(37,99,235)"/>
  <circle cx="188.629" cy="350.432" r="4" fill="rgb(37,99,235)"/>
  <circle cx="252.706" cy="366.75" r="4" fill="rgb(37,99,235)"/>
  <circle cx="222.266" cy="368.424" r="4" fill="rgb(37,99,235)"/>
  <circle cx="138.638" cy="333.265" r="4" fill="rgb(37,99,235)"/>
  <circle cx="131.443" cy="329.75" r="4" fill="rgb(37,99,235)"/>
  <circle cx="130.416" cy="329.11" r="4" fill="rgb(37,99,235)"/>
  <circle cx="133.235" cy="330.79" r="4" fill="rgb(37,99,235)"/>
  <circle cx="171.086" cy="345.514" r="4" fill="rgb(37,99,235)"/>
  <circle cx="129.273" cy="328.33" r="4" fill="rgb(37,99,235)"/>
  <circle cx="128.459" cy="327.247" r="4" fill="rgb(37,99,235)"/>
  <circle cx="132.976" cy="330.603" r="4" fill="rgb(37,99,235)"/>
  <circle cx="130.438" cy="329.215" r="4" fill="rgb(37,99,235)"/>
  <circle cx="132.976" cy="330.603" r="4" fill="rgb(37,99,235)"/>
  <circle cx="135.254" cy="331.743" r="4" fill="rgb(37,99,235)"/>
  <circle cx="128.457" cy="327.231" r="4" fill="rgb(37,99,235)"/>
  <circle cx="131.443" cy="329.75" r="4" fill="rgb(37,99,235)"/>
  <circle cx="128.461" cy="327.126" r="4" fill="rgb(37,99,235)"/>
  <circle cx="182.319" cy="306.367" r="4" fill="rgb(37,99,235)"/>
  <circle cx="128.857" cy="326.468" r="4" fill="rgb(37,99,235)"/>
  <circle cx="147.391" cy="318.918" r="4" fill="rgb(37,99,235)"/>
  <circle cx="128.721" cy="326.62" r="4" fill="rgb(37,99,235)"/>
  <circle cx="128.469" cy="327.096" r="4" fill="rgb(37,99,235)"/>
  <circle cx="400.621" cy="112.333" r="4" fill="rgb(37,99,235)"/>
  <circle cx="129.55" cy="326.094" r="4" fill="rgb(37,99,235)"/>
  <circle cx="137.424" cy="322.55" r="4" fill="rgb(37,99,235)"/>
  <circle cx="128.458" cy="327.143" r="4" fill="rgb(37,99,235)"/>
  <circle cx="158.74" cy="314.891" r="4" fill="rgb(37,99,235)"/>
  <circle cx="153.833" cy="315.543" r="4" fill="rgb(37,99,235)"/>
  <circle cx="130.914" cy="324.901" r="4" fill="rgb(37,99,235)"/>
  <circle cx="176.726" cy="310.721" r="4" fill="rgb(37,99,235)"/>
  <circle cx="130.097" cy="325.681" r="4" fill="rgb(37,99,235)"/>
  <circle cx="129.754" cy="325.76" r="4" fill="rgb(37,99,235)"/>
  <circle cx="155.208" cy="316.139" r="4" fill="rgb(37,99,235)"/>
  <circle cx="128.458" cy="327.15" r="4" fill="rgb(37,99,235)"/>
  <circle cx="128.455" cy="327.179" r="4" fill="rgb(37,99,235)"/>
  <circle cx="334.243" cy="156.344" r="4" fill="rgb(37,99,235)"/>
  <circle cx="128.635" cy="326.74" r="4" fill="rgb(37,99,235)"/>
  <circle cx="207.657" cy="305.067" r="4" fill="rgb(37,99,235)"/>
  <circle cx="128.478" cy="327.071" r="4" fill="rgb(37,99,235)"/>
  <circle cx="286.145" cy="264.955" r="4" fill="rgb(37,99,235)"/>
  <circle cx="129.453" cy="325.904" r="4" fill="rgb(37,99,235)"/>
  <circle cx="132.454" cy="324.585" r="4" fill="rgb(37,99,235)"/>
  <circle cx="356.741" cy="244.589" r="4" fill="rgb(37,99,235)"/>
  <circle cx="286.145" cy="264.955" r="4" fill="rgb(37,99,235)"/>
  <circle cx="130.022" cy="325.474" r="4" fill="rgb(37,99,235)"/>
  <circle cx="188.756" cy="313.809" r="4" fill="rgb(37,99,235)"/>
  <circle cx="129.473" cy="326.034" r="4" fill="rgb(37,99,235)"/>
  <circle cx="128.555" cy="326.903" r="4" fill="rgb(37,99,235)"/>
  <circle cx="129.138" cy="326.174" r="4" fill="rgb(37,99,235)"/>
  <circle cx="419.309" cy="180.39" r="4" fill="rgb(37,99,235)"/>
  <circle cx="897.545" cy="240.564" r="4" fill="rgb(37,99,235)"/>
  <circle cx="128.48" cy="327.05" r="4" fill="rgb(37,99,235)"/>
  <circle cx="128.58" cy="326.835" r="4" fill="rgb(37,99,235)"/>
  <circle cx="155.208" cy="316.139" r="4" fill="rgb(37,99,235)"/>
  <circle cx="356.741" cy="244.589" r="4" fill="rgb(37,99,235)"/>
  <circle cx="132.321" cy="324.135" r="4" fill="rgb(37,99,235)"/>
  <circle cx="128.58" cy="326.835" r="4" fill="rgb(37,99,235)"/>
  <circle cx="132.076" cy="324.643" r="4" fill="rgb(37,99,235)"/>
  <circle cx="182.319" cy="306.367" r="4" fill="rgb(37,99,235)"/>
  <circle cx="128.523" cy="326.938" r="4" fill="rgb(37,99,235)"/>
  <circle cx="128.486" cy="327.034" r="4" fill="rgb(37,99,235)"/>
  <circle cx="130.614" cy="325.281" r="4" fill="rgb(37,99,235)"/>
  <circle cx="209.152" cy="299.293" r="4" fill="rgb(37,99,235)"/>
  <circle cx="147.885" cy="317.991" r="4" fill="rgb(37,99,235)"/>
  <circle cx="129.243" cy="326.118" r="4" fill="rgb(37,99,235)"/>
  <circle cx="215.057" cy="292.028" r="4" fill="rgb(37,99,235)"/>
  <rect x="796" y="60" width="18" height="8" fill="rgb(37,99,235)"/>
  <text x="822" y="68" font-size="12">standardized residuals</text>
</svg>
